# xmcd CD database file generated by OrangeCD 5.2
#
# Track frame offsets:
#	150
#	16367
#	31515
#	44327
#	57230
#	73607
#	87460
#	114410
#	132692
#	150535
#	163957
#	180842
#	197302
#	211130
#	239457
#
# Disc length: 3400 seconds
#
# Revision: 0
# Processed by: cddbd v1.5.2PL0 Copyright (c) Steve Scherf et al.
# Submitted via: OrangeCD 5.2
#
DISCID=c20d460f
DTITLE=Lloyd Glenn - Old Time Shuffle
DYEAR=1900
DGENRE=Blues
TTITLE0=Pinetop's Boogie Woogie
TTITLE1=Honky Tonk Train Blues No.1
TTITLE2=Old Time Shuffle
TTITLE3=Black Fantasy
TTITLE4=Yancey Special
TTITLE5=Ballroom Shuffle
TTITLE6=Lloyd And Lloyd Boogie
TTITLE7=Low Society
TTITLE8=Jungle Jubilee
TTITLE9=Wild Fire
TTITLE10=Conga Rhumba
TTITLE11=Chick-a-boo
TTITLE12=Honky Tonk Train Blues No.2
TTITLE13=Lloyd Blues
TTITLE14=Honky Tonk Train Blues No.3
EXTD=
EXTT0=
EXTT1=
EXTT2=
EXTT3=
EXTT4=
EXTT5=
EXTT6=
EXTT7=
EXTT8=
EXTT9=
EXTT10=
EXTT11=
EXTT12=
EXTT13=
EXTT14=
PLAYORDER=
